<svg xmlns="http://www.w3.org/2000/svg" width="229" height="32" viewBox="0 0 229 32"><g><g><g><path fill="#a04f47" d="M216.901 21.265c-.436 0-.854-.167-1.162-.464a1.55 1.55 0 0 1-.482-1.119v-.715c0-.421.173-.825.48-1.125.308-.3.726-.47 1.164-.476h4.737c3.094 0 2.407-5.432-3.649-5.432a4.604 4.604 0 0 0-2.051.427 5.009 5.009 0 0 0-2.502 2.848 8.727 8.727 0 0 0-.431 2.727v2.886c.01.929.145 1.853.401 2.75.418 1.375 1.818 2.59 3.09 3.037a8.244 8.244 0 0 0 2.736.401c.954.01 1.907-.065 2.847-.224a19.325 19.325 0 0 0 2.123-.497 20.45 20.45 0 0 0 1.486-.497 2.89 2.89 0 0 1 .96-.224.73.73 0 0 1 .368.085.639.639 0 0 1 .244.294c.078.192.123.395.134.601.027.26.04.589.04.981 0 .393 0 .633-.026.886a5.384 5.384 0 0 1-.073.633 1.42 1.42 0 0 1-.407.781 2.927 2.927 0 0 1-.872.447c-.59.226-1.196.412-1.814.557-.834.198-1.678.356-2.528.471-1.008.14-2.026.207-3.045.202-1.735.03-3.465-.209-5.121-.708a9.206 9.206 0 0 1-3.669-2.152 8.825 8.825 0 0 1-2.196-3.639 16.486 16.486 0 0 1-.727-5.15 15.753 15.753 0 0 1 .763-5.063 10.503 10.503 0 0 1 2.235-3.829 9.51 9.51 0 0 1 3.525-2.401 12.53 12.53 0 0 1 4.674-.826c1.476 0 7.969.576 9.748 6.214.378 1.2 1.443 7.312-4.665 7.312zm-10.129-7.98a.812.812 0 0 1-.256.424.677.677 0 0 1-.408.12 1.446 1.446 0 0 1-.44-.082c-.165-.057-.349-.114-.553-.177-.204-.064-.43-.124-.657-.178a3.617 3.617 0 0 0-.812-.082 2.867 2.867 0 0 0-1.049.187c-.385.16-.744.373-1.065.633a7.7 7.7 0 0 0-1.154 1.132c-.401.475-1.289 1.484-1.289 2.177v12.71a.616.616 0 0 1-.148.415 1.1 1.1 0 0 1-.503.294 4.442 4.442 0 0 1-.946.177c-.997.08-1.999.08-2.995 0a4.424 4.424 0 0 1-.944-.177 1.08 1.08 0 0 1-.49-.275.621.621 0 0 1-.148-.415V9.067a.707.707 0 0 1 .122-.414.92.92 0 0 1 .441-.295c.266-.09.543-.15.825-.177.419-.045.84-.065 1.262-.06.439-.005.878.015 1.315.06.274.022.543.082.799.177.161.06.301.162.404.295a.7.7 0 0 1 .122.414v2.623a16.906 16.906 0 0 1 1.621-1.949 9.012 9.012 0 0 1 1.449-1.218 4.589 4.589 0 0 1 1.375-.633 5.53 5.53 0 0 1 1.374-.177c.213 0 .444 0 .687.035a6.962 6.962 0 0 1 1.45.307c.156.05.301.126.43.224.084.072.15.16.194.26.052.126.089.258.112.392.041.246.065.494.072.744 0 .316.027.778.027 1.347 0 .57 0 1.032-.05 1.393a4.108 4.108 0 0 1-.174.87zm-29.548 18.247a11.138 11.138 0 0 1-3.205-.453 7.305 7.305 0 0 1-2.528-1.3 5.843 5.843 0 0 1-1.644-2.139 7.01 7.01 0 0 1-.588-2.977 6.533 6.533 0 0 1 .746-3.202 5.969 5.969 0 0 1 2.235-2.244 11.412 11.412 0 0 1 3.696-1.313 25.51 25.51 0 0 1 4.03-.408c.786-.047 1.055.804 1.055 1.48v.716c.001.374-.136.736-.386 1.022-.25.287-.598.478-.981.541l-.313.025h-.128a9.153 9.153 0 0 0-.92.133 5 5 0 0 0-1.72.633 2.658 2.658 0 0 0-.969 1.028 2.993 2.993 0 0 0-.306 1.38 2.58 2.58 0 0 0 .196 1.134c.151.36.381.683.675.948.579.503 1.387.667 2.42.667a4.616 4.616 0 0 0 2.393-.55c.726-.427 2.301-1.294 2.301-4.132v-6.325a6.333 6.333 0 0 0-.283-1.737 2.834 2.834 0 0 0-.687-1.24c-.35-.35-.79-.603-1.275-.735a7.062 7.062 0 0 0-1.973-.237 10.51 10.51 0 0 0-2.761.316 16.22 16.22 0 0 0-2.147.734c-.62.266-1.14.51-1.558.731-.309.181-.658.29-1.019.317a.747.747 0 0 1-.48-.168 1.2 1.2 0 0 1-.345-.471c-.1-.244-.17-.498-.208-.757a6.12 6.12 0 0 1-.072-.993c-.012-.39.029-.779.122-1.158a1.76 1.76 0 0 1 .467-.766c.357-.31.763-.566 1.203-.756a14.552 14.552 0 0 1 2.012-.769 18.84 18.84 0 0 1 2.518-.579c2.4-.37 4.852-.283 7.216.26a7.527 7.527 0 0 1 3.008 1.49c.786.667 1.226 1.531 1.585 2.585.378 1.228.552 2.506.512 3.787v4.408c0 7.995-3.945 10.479-6.525 10.94-1.48.21-3.82.134-5.369.134zm-8.412-20.763l-5.842 19.07a1.965 1.965 0 0 1-.329.649 1.3 1.3 0 0 1-.602.389 4.498 4.498 0 0 1-1.153.19c-.5.031-1.151.047-1.953.047s-1.46-.02-1.973-.06a5.182 5.182 0 0 1-1.19-.2 1.28 1.28 0 0 1-.628-.392 1.676 1.676 0 0 1-.296-.632l-3.682-12.808-.049-.212-.049.212-3.37 12.804c-.05.232-.146.452-.283.649-.16.19-.379.325-.624.39-.392.11-.796.174-1.203.189a32.99 32.99 0 0 1-1.973.048c-.806 0-1.464-.02-1.972-.06-.4-.02-.795-.088-1.177-.2a1.27 1.27 0 0 1-.628-.392 1.62 1.62 0 0 1-.293-.633l-4.648-15.292c-.385-1.266.555-2.174.986-2.588l2.778-2.658c.454-.43.97-.459 1.154.14l4.274 15.187.049.281.049-.281 4.077-15.479c.041-.175.12-.34.233-.484.125-.146.29-.256.477-.316.29-.094.592-.149.897-.165.385-.032.878-.047 1.486-.047.492-.006.983.014 1.473.06.303.025.603.08.894.164a.904.904 0 0 1 .467.285c.095.124.166.263.21.411l4.369 15.596.073.26.049-.282 4.175-15.479c.026-.173.094-.34.197-.484a.99.99 0 0 1 .49-.316c.303-.093.617-.148.934-.165.391-.031.891-.047 1.496-.047s1.101.016 1.486.047c.307.018.612.07.907.155a.853.853 0 0 1 .454.282.724.724 0 0 1 .125.414 3.458 3.458 0 0 1-.076.633c-.046.272-.135.636-.266 1.108zM94.16 31.503c-8.86 0-10.214-8.261-10.214-11.602a18.827 18.827 0 0 1 .624-5.063 11.261 11.261 0 0 1 1.828-3.828 8.06 8.06 0 0 1 2.995-2.433 9.536 9.536 0 0 1 4.126-.852 9.763 9.763 0 0 1 2.597.361c.44.093.83.337 1.095.686.266.35.39.781.348 1.213l-.227 1.427c-.233 1.528-1.614 1.012-2.854 1.012a5.608 5.608 0 0 0-2.406.484c-.684.321-1.268.81-1.693 1.418a6.63 6.63 0 0 0-.986 2.246c-.232.98-.343 1.984-.329 2.99-.007.82.083 1.637.27 2.436.153.802.45 1.573.874 2.279.388.661.956 1.209 1.644 1.582.687.354 1.538.462 2.554.462a5.663 5.663 0 0 0 2.43-.485 4.309 4.309 0 0 0 1.693-1.408 6.32 6.32 0 0 0 .986-2.233c.23-.833.34-1.692.329-2.554 0-.582.026-1.227.02-1.838V.986a.713.713 0 0 1 .134-.424c.128-.15.3-.26.493-.316.306-.102.622-.17.944-.203a16.141 16.141 0 0 1 2.995 0c.318.032.632.1.933.203.191.06.361.169.49.316a.66.66 0 0 1 .148.424v16.516c-.036 13.397-8.222 14.001-11.841 14.001zm-22.832 0c-1.992 0-10.72-.177-10.72-9.568V9.067a.65.65 0 0 1 .135-.414c.129-.143.3-.246.49-.295.31-.094.631-.153.956-.177.993-.08 1.992-.08 2.985 0 .32.025.637.084.944.177.192.053.366.154.503.295a.618.618 0 0 1 .147.414v11.91c-.025.849.05 1.698.22 2.53.504 1.9 2.46 2.81 4.228 2.81 2.41 0 3.945-1.582 4.231-2.847.153-.822.212-1.656.178-2.49V9.067a.618.618 0 0 1 .148-.414c.135-.142.31-.244.503-.295.306-.093.623-.152.943-.177.993-.08 1.99-.08 2.982 0 .326.024.648.083.96.177.19.05.36.152.49.295a.65.65 0 0 1 .135.414v12.856c0 9.609-8.768 9.58-10.458 9.58zm-15.94-3.357a9.943 9.943 0 0 1-3.758 2.48 14.518 14.518 0 0 1-5.277.877c-1.729.036-3.45-.229-5.082-.781a9.174 9.174 0 0 1-3.587-2.269 9.26 9.26 0 0 1-2.11-3.66 16.484 16.484 0 0 1-.688-4.968 15.39 15.39 0 0 1 .75-4.927 10.307 10.307 0 0 1 2.245-3.828 10.1 10.1 0 0 1 3.745-2.471 14.509 14.509 0 0 1 5.26-.874 15.247 15.247 0 0 1 5.105.77 8.983 8.983 0 0 1 3.574 2.255 9.325 9.325 0 0 1 2.097 3.661 16.5 16.5 0 0 1 .687 4.987 15.495 15.495 0 0 1-.73 4.923 10.262 10.262 0 0 1-2.232 3.825zM51.74 16.771a6.595 6.595 0 0 0-.87-2.28 4.29 4.29 0 0 0-1.645-1.513 5.401 5.401 0 0 0-2.564-.544 5.608 5.608 0 0 0-2.406.484c-.684.32-1.268.81-1.693 1.417a6.63 6.63 0 0 0-.987 2.247c-.232.98-.342 1.984-.328 2.99a14.18 14.18 0 0 0 .273 2.87c.151.803.446 1.574.87 2.28a4.09 4.09 0 0 0 1.644 1.5c.793.378 1.67.56 2.555.532a5.663 5.663 0 0 0 2.43-.484 4.283 4.283 0 0 0 1.692-1.408 6.328 6.328 0 0 0 .987-2.23c.228-.982.338-1.985.328-2.99a14.958 14.958 0 0 0-.286-2.87zM31.915 30.864a4.42 4.42 0 0 1-.947.177c-.997.08-1.998.08-2.995 0a4.422 4.422 0 0 1-.944-.177 1.09 1.09 0 0 1-.503-.294.618.618 0 0 1-.148-.415V.977c0-.154.052-.303.148-.424.133-.15.308-.26.503-.317.306-.101.622-.17.944-.202a16.14 16.14 0 0 1 2.995 0c.322.032.64.1.947.202.195.058.369.168.503.317.096.121.148.27.148.424v29.178a.618.618 0 0 1-.148.415c-.137.14-.311.242-.503.294zm-8.344-2.813a1.962 1.962 0 0 1-.197.507c-.11.176-.241.338-.391.484-.316.275-.668.51-1.046.699a12.49 12.49 0 0 1-1.89.813c-.826.28-1.673.495-2.535.642a17.744 17.744 0 0 1-3.107.26c-2.008.028-4.005-.3-5.89-.968a11.641 11.641 0 0 1-4.481-2.895 12.81 12.81 0 0 1-2.824-4.81 20.815 20.815 0 0 1-.987-6.71c-.04-2.35.325-4.69 1.082-6.924a14.296 14.296 0 0 1 3.018-5.078A12.616 12.616 0 0 1 8.965.951a16.264 16.264 0 0 1 5.99-1.06c.855-.003 1.708.068 2.55.212.771.13 1.53.316 2.272.554.65.21 1.278.476 1.877.794.422.206.814.464 1.167.766.173.159.326.337.454.531.093.172.16.355.197.545a6.1 6.1 0 0 1 .112.781c.023.298.036.668.036 1.108 0 .44 0 .876-.049 1.205a3.102 3.102 0 0 1-.171.804c-.059.17-.16.325-.296.45a.602.602 0 0 1-.394.141 1.71 1.71 0 0 1-.93-.414 15.49 15.49 0 0 0-1.464-.92 12.048 12.048 0 0 0-2.146-.925 9.422 9.422 0 0 0-2.96-.414 7.213 7.213 0 0 0-3.334.717 6.916 6.916 0 0 0-2.583 2.153 9.847 9.847 0 0 0-1.584 3.344c-.731 2.99-.719 6.103.036 9.087a8.837 8.837 0 0 0 1.644 3.247 6.628 6.628 0 0 0 2.577 1.898 8.796 8.796 0 0 0 3.4.633c1 .017 1.999-.116 2.958-.393.742-.222 1.46-.51 2.147-.86.598-.317 1.09-.6 1.473-.851.257-.203.568-.335.897-.38a.712.712 0 0 1 .391.095.712.712 0 0 1 .247.38c.079.257.129.523.148.79.033.34.05.793.05 1.358 0 .397-.014.732-.04 1.006-.003.24-.025.48-.066.718z"/></g><g><g><path fill="#a04f47" d="M126.739 9.148H115.56c-.463 0-1.624-.05-1.183-1.113l2.36-6.537c.075-.231.186-.45.33-.649.162-.185.38-.317.624-.38.39-.1.79-.155 1.193-.164a53.911 53.911 0 0 1 2.012-.035c.967 0 1.733 0 2.301.035.451.009.9.064 1.338.164.267.057.508.195.687.393.16.214.28.454.355.708l2.328 6.423c.401.994-.746 1.155-1.167 1.155z"/></g><g><path fill="#a04f47" d="M131.11 19.942c.811 0 1.087-.43.811-.99l-.716-1.98a.264.264 0 0 0-.078-.12.28.28 0 0 0-.278-.056.277.277 0 0 0-.121.08l-2.393 2.3a.428.428 0 0 0-.1.484c.036.082.095.151.171.2a.473.473 0 0 0 .257.073s2.41 0 2.446.01zm-3.338-7.587a.833.833 0 0 0-.165-.8.897.897 0 0 0-.352-.25.93.93 0 0 0-.433-.06H114.53c-.407.003-1.387.294-1.7 1.025l-2.39 6.613c-.262.645.247 1.044.862 1.044h2.107c.24.034.483-.015.688-.137a.991.991 0 0 0 .433-.531l.553-1.686c.223-.684 1.022-1.276 1.696-.848.674.427 3.761 2.591 3.761 2.591z"/></g><g><path fill="#a04f47" d="M134.657 30.986c-.457.038-1.088.057-1.89.057h-23.342c-.589.007-1.178-.016-1.765-.07a1.373 1.373 0 0 1-.884-.342.911.911 0 0 1-.171-.769c.08-.451.202-.895.365-1.325l1.801-4.987c.43-1.285 1.5-1.452 2.301-1.452h3.173a4.042 4.042 0 0 1 2.301.598l3.504 2.613c.265.247.619.385.987.385s.722-.138.986-.385l2.406-2.363a3.985 3.985 0 0 1 2.69-.86h4.217c.737 0 1.789.195 2.236 1.309l1.877 5.18c.162.437.285.887.368 1.344a.778.778 0 0 1-.197.744c-.275.207-.614.32-.963.323z"/></g></g></g></g></svg>