<svg xmlns="http://www.w3.org/2000/svg" width="145" height="20" viewBox="0 0 145 20"><g><g><g><path fill="#fff" d="M137.662 13.395a1.06 1.06 0 0 1-.734-.293.98.98 0 0 1-.304-.707v-.452c0-.266.109-.521.303-.71.195-.19.459-.298.735-.301h2.994c1.954 0 1.52-3.433-2.306-3.433a2.91 2.91 0 0 0-1.296.27 3.169 3.169 0 0 0-1.581 1.8 5.55 5.55 0 0 0-.272 1.723v1.823a6.6 6.6 0 0 0 .254 1.737c.263.87 1.148 1.637 1.952 1.92a5.203 5.203 0 0 0 1.728.253c.603.006 1.205-.041 1.799-.142.453-.08.901-.184 1.342-.314.378-.113.691-.218.939-.314.191-.081.397-.13.606-.141a.465.465 0 0 1 .233.054c.069.045.123.11.153.185.05.122.078.25.086.38.016.164.024.372.024.62s0 .4-.016.56a3.579 3.579 0 0 1-.046.4.905.905 0 0 1-.257.493c-.166.124-.352.22-.551.282-.373.143-.756.261-1.146.352-.527.126-1.06.225-1.598.298-.637.088-1.28.13-1.923.128a10.585 10.585 0 0 1-3.236-.448 5.816 5.816 0 0 1-2.318-1.36 5.59 5.59 0 0 1-1.388-2.298 10.444 10.444 0 0 1-.459-3.255 9.964 9.964 0 0 1 .482-3.198 6.62 6.62 0 0 1 1.413-2.42A6.005 6.005 0 0 1 135.5 5.37a7.92 7.92 0 0 1 2.954-.521c.932 0 5.035.363 6.158 3.926.239.757.912 4.62-2.947 4.62zm-6.399-5.042a.513.513 0 0 1-.162.268.427.427 0 0 1-.258.076.912.912 0 0 1-.278-.052 11.64 11.64 0 0 0-.349-.112 6.523 6.523 0 0 0-.415-.112 2.287 2.287 0 0 0-.513-.052 1.81 1.81 0 0 0-.663.118c-.243.1-.47.236-.673.4a4.886 4.886 0 0 0-.729.715c-.253.3-.814.938-.814 1.376v8.03a.39.39 0 0 1-.094.262.698.698 0 0 1-.317.186 2.82 2.82 0 0 1-.599.112c-.629.05-1.262.05-1.892 0a2.805 2.805 0 0 1-.596-.112.676.676 0 0 1-.309-.174.39.39 0 0 1-.094-.262V5.688a.446.446 0 0 1 .077-.262.577.577 0 0 1 .278-.186 2.28 2.28 0 0 1 .522-.112c.264-.028.531-.04.797-.038.278-.003.555.01.831.038.173.015.343.052.505.112.101.038.19.102.255.186a.44.44 0 0 1 .077.262v1.657a10.76 10.76 0 0 1 1.024-1.231c.276-.287.583-.545.916-.77.264-.18.557-.315.868-.4.283-.073.575-.11.869-.111.135 0 .28 0 .434.022a4.379 4.379 0 0 1 .916.193c.098.032.19.08.272.142a.48.48 0 0 1 .122.164c.033.08.057.163.071.248.026.156.041.313.046.47 0 .2.016.492.016.852s0 .651-.031.88c-.017.186-.054.37-.11.549zm-18.669 11.529a7.037 7.037 0 0 1-2.025-.286 4.616 4.616 0 0 1-1.597-.822 3.69 3.69 0 0 1-1.039-1.351 4.437 4.437 0 0 1-.372-1.881 4.13 4.13 0 0 1 .472-2.023 3.776 3.776 0 0 1 1.412-1.418 7.212 7.212 0 0 1 2.335-.83c.84-.153 1.692-.239 2.546-.257.497-.03.667.508.667.935v.452a.976.976 0 0 1-.244.646c-.158.181-.378.302-.62.342l-.197.016h-.081a5.794 5.794 0 0 0-.582.084 3.152 3.152 0 0 0-1.086.4c-.261.16-.473.384-.613.65-.133.272-.199.57-.193.87-.013.245.029.49.124.717.095.227.241.432.426.6.366.317.877.421 1.529.421a2.914 2.914 0 0 0 1.512-.348c.459-.27 1.454-.817 1.454-2.61v-3.997a4.014 4.014 0 0 0-.178-1.097 1.803 1.803 0 0 0-.434-.784c-.222-.22-.5-.38-.806-.464a4.464 4.464 0 0 0-1.247-.15 6.636 6.636 0 0 0-1.744.2c-.463.123-.917.278-1.357.464-.392.168-.72.322-.984.462a1.497 1.497 0 0 1-.644.2.47.47 0 0 1-.303-.106.754.754 0 0 1-.218-.298 2.042 2.042 0 0 1-.131-.478 3.771 3.771 0 0 1-.046-.628 2.734 2.734 0 0 1 .077-.731c.054-.183.156-.35.295-.484.226-.196.482-.358.76-.478.41-.193.835-.355 1.271-.486a11.95 11.95 0 0 1 1.591-.365 12.125 12.125 0 0 1 4.559.163 4.754 4.754 0 0 1 1.901.942c.496.422.775.968 1.001 1.633.239.776.349 1.584.324 2.393v2.785c0 5.052-2.492 6.621-4.123 6.913-.935.132-2.413.084-3.392.084zm-5.315-13.118l-3.691 12.048a1.238 1.238 0 0 1-.208.41c-.1.115-.231.2-.38.246a2.837 2.837 0 0 1-.729.12c-.316.02-.727.03-1.234.03-.506 0-.922-.013-1.246-.038a3.265 3.265 0 0 1-.752-.126.805.805 0 0 1-.397-.248 1.052 1.052 0 0 1-.186-.4l-2.327-8.092-.031-.134-.031.134-2.13 8.09a1.154 1.154 0 0 1-.178.41.773.773 0 0 1-.394.246 3.24 3.24 0 0 1-.76.12c-.322.02-.737.03-1.247.03-.51 0-.925-.013-1.246-.038a3.232 3.232 0 0 1-.744-.126.805.805 0 0 1-.396-.248 1.018 1.018 0 0 1-.185-.4L85.85 9.137c-.243-.8.35-1.374.623-1.636l1.755-1.679c.287-.272.613-.29.729.088l2.7 9.596.031.178.032-.178 2.575-9.78a.786.786 0 0 1 .148-.306.67.67 0 0 1 .3-.2c.184-.059.375-.093.568-.104.243-.02.554-.03.939-.03.31-.003.621.01.93.038.192.016.381.051.565.104a.57.57 0 0 1 .295.18c.06.079.105.167.133.26l2.76 9.854.046.164.031-.178 2.638-9.78a.705.705 0 0 1 .125-.306.62.62 0 0 1 .309-.2c.192-.058.39-.093.59-.104.247-.02.563-.03.945-.03s.696.01.939.03c.195.011.387.044.573.098.114.028.214.09.287.178a.448.448 0 0 1 .079.262 2.072 2.072 0 0 1-.048.4 7.327 7.327 0 0 1-.168.7zm-47.166 13.1c-5.598 0-6.454-5.22-6.454-7.33a11.9 11.9 0 0 1 .395-3.2 7.116 7.116 0 0 1 1.155-2.418A5.093 5.093 0 0 1 57.1 5.378a6.025 6.025 0 0 1 2.607-.537 6.17 6.17 0 0 1 1.64.227c.278.059.525.213.693.434.167.22.246.493.22.766l-.144.902c-.147.965-1.02.64-1.803.64a3.543 3.543 0 0 0-1.52.305 2.703 2.703 0 0 0-1.07.896 4.187 4.187 0 0 0-.623 1.42 7.747 7.747 0 0 0-.208 1.888 6.526 6.526 0 0 0 .17 1.54c.098.506.284.993.553 1.439.245.418.604.764 1.038 1 .435.223.973.291 1.614.291a3.578 3.578 0 0 0 1.535-.306c.431-.201.8-.508 1.07-.89.299-.427.51-.906.623-1.41a5.764 5.764 0 0 0 .208-1.614c0-.368.016-.776.012-1.161V.583a.45.45 0 0 1 .085-.268.638.638 0 0 1 .312-.2 2.79 2.79 0 0 1 .596-.128c.63-.059 1.263-.059 1.892 0 .202.02.4.063.59.128.12.037.228.107.31.2a.42.42 0 0 1 .093.268v10.435c-.023 8.464-5.194 8.846-7.481 8.846zm-14.426 0c-1.258 0-6.773-.112-6.773-6.045v-8.13a.411.411 0 0 1 .085-.263.627.627 0 0 1 .31-.186c.196-.059.399-.097.604-.112.628-.05 1.258-.05 1.886 0 .202.016.402.054.596.112a.699.699 0 0 1 .318.186.39.39 0 0 1 .093.262v7.525c-.016.536.031 1.073.14 1.6.317 1.199 1.553 1.774 2.67 1.774 1.523 0 2.493-1 2.674-1.799a7.052 7.052 0 0 0 .112-1.573V5.688a.39.39 0 0 1 .093-.262.678.678 0 0 1 .318-.186c.194-.058.394-.096.596-.112a11.7 11.7 0 0 1 1.884 0c.206.016.41.053.607.112.12.031.228.096.31.186a.411.411 0 0 1 .084.262v8.123c0 6.07-5.54 6.053-6.607 6.053zm-10.072-2.121a6.282 6.282 0 0 1-2.374 1.567 9.172 9.172 0 0 1-3.333.554 9.417 9.417 0 0 1-3.212-.494 5.796 5.796 0 0 1-2.266-1.433 5.852 5.852 0 0 1-1.333-2.313 10.414 10.414 0 0 1-.434-3.139 9.724 9.724 0 0 1 .473-3.112 6.513 6.513 0 0 1 1.42-2.42 6.381 6.381 0 0 1 2.365-1.56 9.167 9.167 0 0 1 3.323-.552 9.633 9.633 0 0 1 3.226.485 5.676 5.676 0 0 1 2.258 1.426 5.892 5.892 0 0 1 1.325 2.313c.305 1.023.451 2.085.434 3.15a9.792 9.792 0 0 1-.461 3.11 6.485 6.485 0 0 1-1.41 2.418zm-2.303-7.187a4.164 4.164 0 0 0-.55-1.441 2.709 2.709 0 0 0-1.039-.956 3.412 3.412 0 0 0-1.62-.344 3.544 3.544 0 0 0-1.52.306 2.704 2.704 0 0 0-1.07.896 4.19 4.19 0 0 0-.623 1.42 7.747 7.747 0 0 0-.208 1.888 8.957 8.957 0 0 0 .172 1.813c.096.508.282.995.55 1.442.25.402.609.73 1.04.947.5.239 1.055.354 1.613.336a3.577 3.577 0 0 0 1.535-.306c.432-.2.8-.508 1.07-.89.298-.427.51-.905.623-1.409.144-.62.214-1.254.208-1.889a9.442 9.442 0 0 0-.181-1.813zM20.785 19.46a2.798 2.798 0 0 1-.598.112c-.63.05-1.263.05-1.892 0a2.797 2.797 0 0 1-.596-.112.69.69 0 0 1-.318-.186.39.39 0 0 1-.094-.262V.577c0-.097.033-.191.094-.268a.683.683 0 0 1 .318-.2c.193-.064.393-.107.596-.128.629-.059 1.263-.059 1.892 0 .204.02.405.063.598.128a.692.692 0 0 1 .318.2.427.427 0 0 1 .093.268v18.435a.39.39 0 0 1-.093.262.7.7 0 0 1-.318.186zm-5.271-1.777c-.027.111-.069.219-.125.32-.07.11-.152.214-.247.306-.2.173-.422.322-.66.441a7.888 7.888 0 0 1-1.195.514c-.522.177-1.057.313-1.601.406-.648.112-1.305.167-1.963.164-1.27.018-2.531-.19-3.722-.612a7.355 7.355 0 0 1-2.832-1.83 8.093 8.093 0 0 1-1.784-3.038 13.15 13.15 0 0 1-.623-4.24 12.932 12.932 0 0 1 .683-4.374 9.033 9.033 0 0 1 1.907-3.208A7.971 7.971 0 0 1 6.285.56a10.276 10.276 0 0 1 3.785-.67c.54-.002 1.08.043 1.611.134.487.082.967.199 1.436.35.41.132.807.3 1.186.501.266.13.514.293.737.484.11.1.206.213.287.336.058.108.1.224.124.344.034.163.058.328.07.494.015.188.024.421.024.7 0 .277 0 .553-.031.761-.014.173-.05.344-.108.508a.692.692 0 0 1-.187.284.38.38 0 0 1-.25.09 1.08 1.08 0 0 1-.587-.262 9.784 9.784 0 0 0-.925-.582 7.61 7.61 0 0 0-1.356-.584 5.953 5.953 0 0 0-1.87-.262 4.557 4.557 0 0 0-2.106.453A4.37 4.37 0 0 0 6.493 5a6.222 6.222 0 0 0-1.001 2.114 11.883 11.883 0 0 0 .022 5.741 5.583 5.583 0 0 0 1.039 2.051c.432.523.991.935 1.628 1.2.68.273 1.411.41 2.148.4a6.36 6.36 0 0 0 1.87-.249c.468-.14.922-.322 1.356-.543.378-.2.688-.38.93-.538.163-.128.36-.211.567-.24a.45.45 0 0 1 .248.06.45.45 0 0 1 .155.24c.05.163.082.33.094.5.02.214.031.5.031.857 0 .25-.008.463-.025.636a2.831 2.831 0 0 1-.041.454z"/></g><g><g><path fill="#f5861f" d="M80.692 5.74H73.63c-.293 0-1.026-.033-.748-.704l1.491-4.13c.047-.146.118-.285.208-.41.103-.117.24-.2.395-.24.246-.063.499-.098.754-.104.32-.013.743-.02 1.27-.022.611 0 1.095 0 1.455.022.285.006.568.04.845.104.169.036.32.123.434.248.101.135.177.287.225.448l1.47 4.058c.253.628-.471.73-.737.73z"/></g><g><path fill="#6fbd44" d="M83.453 12.558c.513 0 .688-.272.513-.625l-.452-1.252a.168.168 0 0 0-.05-.076.177.177 0 0 0-.175-.035.175.175 0 0 0-.077.051L81.7 12.075a.27.27 0 0 0-.063.306.299.299 0 0 0 .27.172c.001 0 1.524 0 1.546.005zm-2.108-4.793a.526.526 0 0 0-.105-.506.588.588 0 0 0-.496-.196H72.98c-.258.002-.877.186-1.074.648l-1.51 4.178c-.166.407.156.66.544.66h1.331c.151.02.305-.01.435-.087a.626.626 0 0 0 .274-.335l.349-1.066c.14-.432.646-.806 1.071-.536.426.27 2.377 1.638 2.377 1.638z"/></g><g><path fill="#4a7bbd" d="M85.69 19.537c-.29.024-.688.036-1.195.036H69.748c-.373.004-.745-.01-1.116-.044a.868.868 0 0 1-.558-.216.576.576 0 0 1-.108-.486 4.67 4.67 0 0 1 .23-.838l1.138-3.15c.273-.812.948-.918 1.454-.918h2.005a2.553 2.553 0 0 1 1.454.378l2.214 1.651c.167.156.39.243.623.243a.914.914 0 0 0 .623-.243l1.52-1.493a2.518 2.518 0 0 1 1.7-.544h2.664c.466 0 1.13.124 1.413.828l1.186 3.272c.102.277.18.561.232.85a.492.492 0 0 1-.124.47c-.174.13-.388.202-.609.204z"/></g></g></g></g></svg>