<svg width="301" height="601" viewBox="0 0 301 601" fill="none" xmlns="http://www.w3.org/2000/svg">
<path d="M0.667942 600.008C-165.017 600.008 -299.331 465.694 -299.331 300.01C-299.331 134.325 -165.017 0.0107221 0.667969 0.0107293C166.353 0.0107364 300.667 134.325 300.667 300.01C300.667 465.694 166.353 600.008 0.667942 600.008ZM0.667961 184.482C-63.1361 184.482 -114.86 236.205 -114.86 300.01C-114.86 363.814 -63.1362 415.537 0.66795 415.537C64.472 415.537 116.195 363.814 116.195 300.01C116.195 236.205 64.4721 184.482 0.667961 184.482Z" fill="#F68B28"/>
<path d="M-177.588 541.306C-217.269 511.992 -249.109 473.344 -270.286 428.785C-291.464 384.227 -301.325 335.133 -298.997 285.853C-296.669 236.573 -282.223 188.627 -256.939 146.263C-231.656 103.9 -196.314 68.4252 -154.046 42.9824C-111.777 17.5396 -63.8867 2.91369 -14.6156 0.400295C34.6555 -2.1131 83.786 7.56357 128.424 28.5732C173.062 49.5827 211.83 81.2768 241.293 120.848C270.756 160.419 290.006 206.645 297.337 255.433L114.913 282.843C112.09 264.056 104.677 246.254 93.331 231.016C81.9849 215.777 67.0557 203.572 49.8659 195.481C32.6761 187.391 13.7563 183.664 -5.21763 184.632C-24.1916 185.6 -42.634 191.232 -58.9113 201.03C-75.1885 210.828 -88.7982 224.489 -98.5348 240.803C-108.271 257.117 -113.834 275.58 -114.731 294.558C-115.627 313.535 -111.83 332.441 -103.675 349.6C-95.5194 366.759 -83.2582 381.643 -67.9771 392.931L-177.588 541.306Z" fill="white"/>
<path d="M243.75 475.818C271.611 437.295 289.918 392.703 297.162 345.716C304.406 298.729 300.379 250.693 285.413 205.568L110.32 263.639C116.083 281.016 117.634 299.514 114.845 317.609C112.055 335.703 105.005 352.875 94.2758 367.71L243.75 475.818Z" fill="#A65C54"/>
</svg>
