<svg width="301" height="601" viewBox="0 0 301 601" fill="none" xmlns="http://www.w3.org/2000/svg">
<path d="M600.667 300.008C600.667 465.692 466.353 600.006 300.668 600.006C134.982 600.006 0.667969 465.692 0.667969 300.008C0.667969 134.323 134.982 0.00878906 300.668 0.00878906C466.353 0.00878906 600.667 134.323 600.667 300.008ZM185.14 300.008C185.14 363.812 236.863 415.535 300.668 415.535C364.472 415.535 416.195 363.812 416.195 300.008C416.195 236.204 364.472 184.48 300.668 184.48C236.863 184.48 185.14 236.204 185.14 300.008Z" fill="white"/>
<path d="M34.5066 161.595C53.978 124.153 81.1303 91.2398 114.189 65.0068C147.248 38.7739 185.47 19.8111 226.358 9.35759C267.246 -1.09595 309.879 -2.80506 351.472 4.34193C393.065 11.4889 432.683 27.3312 467.736 50.8336C502.789 74.3361 532.488 104.97 554.895 140.733C577.301 176.497 591.909 216.586 597.765 258.38C603.621 300.175 600.593 342.734 588.879 383.279C577.164 423.823 557.027 461.44 529.784 493.671L388.899 374.586C399.39 362.174 407.145 347.688 411.656 332.075C416.167 316.461 417.333 300.072 415.078 283.977C412.823 267.882 407.197 252.445 398.569 238.672C389.94 224.9 378.503 213.103 365.004 204.052C351.506 195.002 336.249 188.901 320.232 186.149C304.215 183.397 287.797 184.055 272.052 188.08C256.306 192.106 241.587 199.408 228.856 209.51C216.125 219.613 205.669 232.287 198.171 246.706L34.5066 161.595Z" fill="#F68B28"/>
<path d="M39.9333 151.624C5.00073 213.006 -7.15607 284.744 5.60327 354.207C18.3627 423.67 55.2202 486.405 109.686 531.365L227.121 389.103C206.147 371.789 191.953 347.63 187.04 320.88C182.126 294.13 186.808 266.504 200.26 242.867L39.9333 151.624Z" fill="#FFEEDF"/>
</svg>
