<svg xmlns="http://www.w3.org/2000/svg" width="963" height="1021" viewBox="0 0 963 1021"><g><g><path fill="#fff" d="M.31 554.92c0 185.358 81.375 351.709 210.349 465.28l751.593-.1V.18L343.266.275C139.932 101.94.31 312.124.31 554.92z"/></g><g><path fill="#a83f34" d="M737.591 327.552v298.082c-17.445 71.709-103.215 164.508-250.041 217.938-146.826-53.43-232.595-146.229-250.04-217.938V327.552c79.083-50.618 199.645-63.272 250.04-63.272 50.396 0 170.958 12.654 250.041 63.272zm-440.538 48.189c29.089-16.786 64.846-27.948 99.174-34.981 37.267-7.635 71.556-10.145 91.323-10.145 19.767 0 54.056 2.51 91.323 10.145 34.328 7.033 70.085 18.195 99.174 34.981v235.515c-13.487 50.945-76.674 121.902-190.497 164.873-113.823-42.971-177.01-113.928-190.497-164.873zm-25.646-23.403l-7.68 4.916v258.08l.472 1.941c16.28 66.922 93.185 146.989 217.653 192.283l5.698 2.074 5.698-2.074c124.468-45.294 201.373-125.361 217.653-192.283l.473-1.941v-258.08l-7.681-4.916c-35.194-22.526-78.784-36.165-118.131-44.226-39.495-8.092-76.026-10.824-98.012-10.824-21.986 0-58.517 2.732-98.012 10.824-39.347 8.06-82.937 21.7-118.131 44.226zm355.171 151.34c9.149-10.337 8.185-26.133-2.152-35.282-10.337-9.148-26.134-8.185-35.282 2.152L474.46 600.13l-78.009-60.686c-10.895-8.476-26.599-6.514-35.075 4.381-8.476 10.896-6.514 26.6 4.381 35.076l96.526 75.09c10.41 8.098 25.322 6.714 34.064-3.163z"/></g></g></svg>