<svg width="376" height="667" viewBox="0 0 376 667" fill="none" xmlns="http://www.w3.org/2000/svg">
<rect x="0.383789" width="375.351" height="663.498" fill="#FFEEDF"/>
<path opacity="0.72" d="M-93.1279 326.667C-139.82 391.792 -187.129 503.536 -234.085 503.536V666.989H-93.1279H47.8293H188.786H329.743H470.701H611.658H729.093H752.615V112.434L728.828 186.987C705.923 260.843 658.614 410.998 611.658 419.728C564.966 428.458 517.657 299.255 470.701 280.049C424.009 260.843 376.7 355.126 329.743 335.921C283.051 316.715 235.743 187.511 188.786 149.623C142.094 112.434 94.7856 168.305 47.8293 205.495C1.13724 243.383 -46.1715 260.843 -93.1279 326.667Z" fill="#FEBB7D"/>
<path opacity="0.812" d="M-194.563 377.291L-155.108 401.53C-115.652 425.769 -36.7415 474.247 42.1695 482.276C121.08 490.911 199.991 457.583 278.902 425.769C357.813 393.956 436.724 360.627 515.635 361.082C594.546 360.627 673.457 393.956 712.913 409.559L752.368 425.769V666.988H712.913C673.457 666.988 594.546 666.988 515.635 666.988C436.724 666.988 357.813 666.988 278.902 666.988C199.991 666.988 121.08 666.988 42.1695 666.988C-36.7415 666.988 -115.652 666.988 -155.108 666.988H-194.563V377.291Z" fill="#DA664B"/>
<path opacity="0.48" d="M-196.283 666.988L-169.925 585.196C-143.567 550.712 -90.8501 502.859 -38.1335 497.147C14.5831 491.005 67.2997 528.081 120.016 562.242C172.733 597.05 225.449 607.826 278.166 567.954C330.883 528.081 383.599 435.405 436.316 412.775C489.032 390.145 541.749 435.405 594.465 458.79C647.182 481.743 699.898 481.743 726.257 481.743H752.615V666.988H726.257C699.898 666.988 647.182 666.988 594.465 666.988C541.749 666.988 489.032 666.988 436.316 666.988C383.599 666.988 330.883 666.988 278.166 666.988C225.449 666.988 172.733 666.988 120.016 666.988C67.2997 666.988 14.5831 666.988 -38.1335 666.988C-90.8501 666.988 -143.567 666.988 -169.925 666.988H-196.283Z" fill="#6F1E31"/>
</svg>
