<svg width="236" height="236" viewBox="0 0 236 236" fill="none" xmlns="http://www.w3.org/2000/svg">
<circle cx="118.059" cy="117.69" r="117.404" fill="white"/>
<path fill-rule="evenodd" clip-rule="evenodd" d="M118.061 47.208C105.797 47.208 76.4597 50.2873 57.2158 62.6046V135.14C61.4608 152.589 82.332 175.171 118.061 188.173C153.789 175.171 174.66 152.589 178.905 135.14V62.6046C159.661 50.2873 130.324 47.208 118.061 47.208ZM71.7049 74.331V131.641C74.9869 144.038 90.3628 161.305 118.06 171.761C145.758 161.305 161.134 144.038 164.416 131.641V74.331C157.337 70.2463 148.636 67.5299 140.283 65.8186C131.215 63.9607 122.871 63.3499 118.06 63.3499C113.25 63.3499 104.906 63.9607 95.8379 65.8186C87.4846 67.5299 78.7834 70.2463 71.7049 74.331ZM94.2103 57.874C103.821 55.905 112.71 55.2403 118.06 55.2403C123.411 55.2403 132.3 55.905 141.911 57.874C151.485 59.8356 162.093 63.1546 170.657 68.6361L172.526 69.8323V132.633L172.411 133.106C168.449 149.391 149.735 168.874 119.447 179.896L118.06 180.4L116.674 179.896C86.386 168.874 67.6719 149.391 63.7102 133.106L63.5953 132.633V69.8323L65.4642 68.6361C74.0283 63.1546 84.6356 59.8356 94.2103 57.874ZM151.891 105.463C154.118 102.948 153.883 99.1038 151.368 96.8776C148.852 94.6513 145.009 94.8858 142.782 97.4012L114.875 128.934L95.8926 114.166C93.2412 112.104 89.4199 112.581 87.3574 115.232C85.2948 117.884 85.7721 121.705 88.4235 123.768L111.912 142.04C114.445 144.011 118.074 143.674 120.201 141.27L151.891 105.463Z" fill="#A83F34"/>
</svg>
