<svg width="1921" height="357" viewBox="0 0 1921 357" fill="none" xmlns="http://www.w3.org/2000/svg">
<path opacity="0.48" d="M-3.01758 356.912L50.4265 299.283C103.871 241.655 210.759 161.685 317.647 152.141C424.535 141.876 531.423 203.836 638.312 260.924C745.2 319.093 852.088 337.102 958.976 270.469C1065.86 203.836 1172.75 48.9598 1279.64 11.1411C1386.53 -26.6776 1493.42 48.9598 1600.31 88.0391C1707.19 126.398 1814.08 126.398 1867.53 126.398H1920.97V356.912H1867.53C1814.08 356.912 1707.19 356.912 1600.31 356.912C1493.42 356.912 1386.53 356.912 1279.64 356.912C1172.75 356.912 1065.86 356.912 958.976 356.912C852.088 356.912 745.2 356.912 638.312 356.912C531.423 356.912 424.535 356.912 317.647 356.912C210.759 356.912 103.871 356.912 50.4265 356.912H-3.01758Z" fill="#6F1E31"/>
</svg>
