<svg width="1921" height="433" viewBox="0 0 1921 433" fill="none" xmlns="http://www.w3.org/2000/svg">
<path opacity="0.812" d="M0.469727 27.8431L80.4697 68.35C160.47 108.857 320.47 189.871 480.47 203.289C640.47 217.719 800.47 162.022 960.47 108.857C1120.47 55.6916 1280.47 -0.00535446 1440.47 0.75415C1600.47 -0.00535446 1760.47 55.6916 1840.47 81.7679L1920.47 108.857V432.912H1840.47C1760.47 432.912 1600.47 432.912 1440.47 432.912C1280.47 432.912 1120.47 432.912 960.47 432.912C800.47 432.912 640.47 432.912 480.47 432.912C320.47 432.912 160.47 432.912 80.4697 432.912H0.469727V27.8431Z" fill="#DA664B"/>
</svg>
