<svg xmlns="http://www.w3.org/2000/svg" width="51" height="59" viewBox="0 0 51 59"><g><g><path fill="#fff" d="M50.308 6.797v29.856C48.56 43.835 39.97 53.13 25.264 58.482 10.558 53.13 1.967 43.835.22 36.653V6.797C8.14 1.727 20.216.46 25.264.46c5.048 0 17.123 1.267 25.044 6.337zM6.184 11.624c2.913-1.681 6.495-2.8 9.933-3.504 3.733-.765 7.167-1.016 9.147-1.016 1.98 0 5.414.251 9.147 1.016 3.438.705 7.02 1.823 9.933 3.504v23.589c-1.35 5.103-7.68 12.21-19.08 16.514-11.4-4.304-17.73-11.411-19.08-16.514zM3.615 9.28l-.77.492v25.85l.048.194c1.63 6.703 9.334 14.722 21.8 19.259l.57.207.572-.207c12.466-4.537 20.17-12.556 21.8-19.26l.047-.193V9.771l-.77-.492c-3.524-2.256-7.89-3.622-11.831-4.43-3.956-.81-7.615-1.084-9.817-1.084s-5.861.274-9.817 1.084c-3.94.808-8.307 2.174-11.832 4.43zM39.19 24.438a2.504 2.504 0 0 0-3.75-3.318L23.953 34.099l-7.814-6.079a2.503 2.503 0 1 0-3.074 3.952l9.668 7.521a2.503 2.503 0 0 0 3.412-.317z"/></g></g></svg>